<svg xmlns="http://www.w3.org/2000/svg" aria-hidden="true"
  style="position:absolute;width:0;height:0;overflow:hidden">
  <defs>
    <symbol id="icon-close" viewBox="0 0 32 32">
      <path
        d="M31.708 25.708c-0-0-0-0-0-0l-9.708-9.708 9.708-9.708c0-0 0-0 0-0 0.105-0.105 0.18-0.227 0.229-0.357 0.133-0.356 0.057-0.771-0.229-1.057l-4.586-4.586c-0.286-0.286-0.702-0.361-1.057-0.229-0.13 0.048-0.252 0.124-0.357 0.228 0 0-0 0-0 0l-9.708 9.708-9.708-9.708c-0-0-0-0-0-0-0.105-0.104-0.227-0.18-0.357-0.228-0.356-0.133-0.771-0.057-1.057 0.229l-4.586 4.586c-0.286 0.286-0.361 0.702-0.229 1.057 0.049 0.13 0.124 0.252 0.229 0.357 0 0 0 0 0 0l9.708 9.708-9.708 9.708c-0 0-0 0-0 0-0.104 0.105-0.18 0.227-0.229 0.357-0.133 0.355-0.057 0.771 0.229 1.057l4.586 4.586c0.286 0.286 0.702 0.361 1.057 0.229 0.13-0.049 0.252-0.124 0.357-0.229 0-0 0-0 0-0l9.708-9.708 9.708 9.708c0 0 0 0 0 0 0.105 0.105 0.227 0.18 0.357 0.229 0.356 0.133 0.771 0.057 1.057-0.229l4.586-4.586c0.286-0.286 0.362-0.702 0.229-1.057-0.049-0.13-0.124-0.252-0.229-0.357z"></path>
    </symbol>
    <symbol id="icon-github" viewBox="0 0 32 32">
      <path
        d="M16 0.395c-8.836 0-16 7.163-16 16 0 7.069 4.585 13.067 10.942 15.182 0.8 0.148 1.094-0.347 1.094-0.77 0-0.381-0.015-1.642-0.022-2.979-4.452 0.968-5.391-1.888-5.391-1.888-0.728-1.849-1.776-2.341-1.776-2.341-1.452-0.993 0.11-0.973 0.11-0.973 1.606 0.113 2.452 1.649 2.452 1.649 1.427 2.446 3.743 1.739 4.656 1.33 0.143-1.034 0.558-1.74 1.016-2.14-3.554-0.404-7.29-1.777-7.29-7.907 0-1.747 0.625-3.174 1.649-4.295-0.166-0.403-0.714-2.030 0.155-4.234 0 0 1.344-0.43 4.401 1.64 1.276-0.355 2.645-0.532 4.005-0.539 1.359 0.006 2.729 0.184 4.008 0.539 3.054-2.070 4.395-1.64 4.395-1.64 0.871 2.204 0.323 3.831 0.157 4.234 1.026 1.12 1.647 2.548 1.647 4.295 0 6.145-3.743 7.498-7.306 7.895 0.574 0.497 1.085 1.47 1.085 2.963 0 2.141-0.019 3.864-0.019 4.391 0 0.426 0.288 0.925 1.099 0.768 6.354-2.118 10.933-8.113 10.933-15.18 0-8.837-7.164-16-16-16z"></path>
    </symbol>
  </defs>

  <defs>
    <symbol id="film">
      <path
        d="M19.82 2H4.18C2.97602 2 2 2.97602 2 4.18V19.82C2 21.024 2.97602 22 4.18 22H19.82C21.024 22 22 21.024 22 19.82V4.18C22 2.97602 21.024 2 19.82 2Z"
        stroke="#818181" stroke-width="2" stroke-linecap="round" stroke-linejoin="round" />
      <path d="M7 2V22" stroke="#818181" stroke-width="2" stroke-linecap="round"
        stroke-linejoin="round" />
      <path d="M17 2V22" stroke="#818181" stroke-width="2" stroke-linecap="round"
        stroke-linejoin="round" />
      <path d="M2 12H22" stroke="#818181" stroke-width="2" stroke-linecap="round"
        stroke-linejoin="round" />
      <path d="M2 7H7" stroke="#818181" stroke-width="2" stroke-linecap="round"
        stroke-linejoin="round" />
      <path d="M2 17H7" stroke="#818181" stroke-width="2" stroke-linecap="round"
        stroke-linejoin="round" />
      <path d="M17 17H22" stroke="#818181" stroke-width="2" stroke-linecap="round"
        stroke-linejoin="round" />
      <path d="M17 7H22" stroke="#818181" stroke-width="2" stroke-linecap="round"
        stroke-linejoin="round" />
    </symbol>
  </defs>

  <defs>
    <symbol id="search">
      <path
        d="M5.5 9.5C7.70914 9.5 9.5 7.70914 9.5 5.5C9.5 3.29086 7.70914 1.5 5.5 1.5C3.29086 1.5 1.5 3.29086 1.5 5.5C1.5 7.70914 3.29086 9.5 5.5 9.5Z"
        stroke="white" stroke-linecap="round" stroke-linejoin="round" />
      <path d="M10.5 10.5002L8.32495 8.3252" stroke="white" stroke-linecap="round"
        stroke-linejoin="round" />
    </symbol>
  </defs>

</svg>